<svg width="1024" height="1024" viewBox="0 0 1024 1024" fill="none" xmlns="http://www.w3.org/2000/svg">
<path fill-rule="evenodd" clip-rule="evenodd" d="M1024 512C1024 794.77 794.77 1024 512 1024C229.23 1024 0 794.77 0 512C0 229.23 229.23 0 512 0C794.77 0 1024 229.23 1024 512ZM330.77 358.948C338.531 366.414 338.77 378.759 331.303 386.52L211.06 511.5L331.303 636.48C338.77 644.241 338.531 656.586 330.77 664.052C323.01 671.519 310.665 671.281 303.198 663.52L169.948 525.02C162.684 517.47 162.684 505.53 169.948 497.98L303.198 359.48C310.665 351.719 323.01 351.481 330.77 358.948ZM693.697 636.48C686.23 644.241 686.469 656.586 694.23 664.052C701.99 671.519 714.335 671.281 721.802 663.52L855.052 525.02C862.316 517.47 862.316 505.53 855.052 497.98L721.802 359.48C714.335 351.719 701.99 351.481 694.23 358.948C686.469 366.414 686.23 378.759 693.697 386.52L813.94 511.5L693.697 636.48Z" fill="black"/>
</svg>
